<svg xmlns="http://www.w3.org/2000/svg" viewBox="0 0 512 512">
  <defs>
    <radialGradient id="globe" cx="40%" cy="35%" r="50%">
      <stop offset="0%" stop-color="#1a3a5c"/>
      <stop offset="100%" stop-color="#0a1628"/>
    </radialGradient>
    <radialGradient id="glow" cx="50%" cy="50%" r="50%">
      <stop offset="0%" stop-color="#00e5ff" stop-opacity="0.3"/>
      <stop offset="100%" stop-color="#00e5ff" stop-opacity="0"/>
    </radialGradient>
    <filter id="blur"><feGaussianBlur stdDeviation="8"/></filter>
  </defs>
  <circle cx="256" cy="256" r="240" fill="url(#glow)" filter="url(#blur)"/>
  <circle cx="256" cy="256" r="200" fill="url(#globe)" stroke="#00e5ff" stroke-width="3" stroke-opacity="0.6"/>
  <ellipse cx="256" cy="256" rx="200" ry="60" fill="none" stroke="#00e5ff" stroke-width="1.5" stroke-opacity="0.2"/>
  <ellipse cx="256" cy="256" rx="200" ry="130" fill="none" stroke="#00e5ff" stroke-width="1.5" stroke-opacity="0.2"/>
  <ellipse cx="256" cy="256" rx="60" ry="200" fill="none" stroke="#00e5ff" stroke-width="1.5" stroke-opacity="0.2"/>
  <ellipse cx="256" cy="256" rx="130" ry="200" fill="none" stroke="#00e5ff" stroke-width="1.5" stroke-opacity="0.2"/>
  <line x1="56" y1="256" x2="456" y2="256" stroke="#00e5ff" stroke-width="1.5" stroke-opacity="0.2"/>
  <line x1="256" y1="56" x2="256" y2="456" stroke="#00e5ff" stroke-width="1.5" stroke-opacity="0.2"/>
  <circle cx="180" cy="190" r="18" fill="#ff4444" fill-opacity="0.7"/>
  <circle cx="320" cy="210" r="14" fill="#ff8800" fill-opacity="0.6"/>
  <circle cx="290" cy="300" r="12" fill="#ffcc00" fill-opacity="0.5"/>
  <circle cx="200" cy="310" r="10" fill="#00e5ff" fill-opacity="0.6"/>
  <polygon points="270,120 240,230 270,220 250,340 310,200 275,210" fill="#00e5ff" fill-opacity="0.8"/>
</svg>
